HIERARCHY
ROOT Hips
{
	OFFSET 0.00000 0.00000 0.00000
	CHANNELS 6 Xposition Yposition Zposition Zrotation Yrotation Xrotation 
	JOINT LHipJoint
	{
		OFFSET 0 0 0
		CHANNELS 3 Zrotation Yrotation Xrotation
		JOINT LeftUpLeg
		{
			OFFSET 1.56857 -1.73443 1.15205
			CHANNELS 3 Zrotation Yrotation Xrotation
			JOINT LeftLeg
			{
				OFFSET 2.39362 -6.57643 0.00000
				CHANNELS 3 Zrotation Yrotation Xrotation
				JOINT LeftFoot
				{
					OFFSET 2.50952 -6.89485 0.00000
					CHANNELS 3 Zrotation Yrotation Xrotation
					JOINT LeftToeBase
					{
						OFFSET 0.17171 -0.47178 1.88682
						CHANNELS 3 Zrotation Yrotation Xrotation
						End Site
						{
							OFFSET 0.00000 -0.00000 0.98146
						}
					}
				}
			}
		}
	}
	JOINT RHipJoint
	{
		OFFSET 0 0 0
		CHANNELS 3 Zrotation Yrotation Xrotation
		JOINT RightUpLeg
		{
			OFFSET -1.28153 -1.73443 1.15205
			CHANNELS 3 Zrotation Yrotation Xrotation
			JOINT RightLeg
			{
				OFFSET -2.26861 -6.23296 0.00000
				CHANNELS 3 Zrotation Yrotation Xrotation
				JOINT RightFoot
				{
					OFFSET -2.54143 -6.98254 0.00000
					CHANNELS 3 Zrotation Yrotation Xrotation
					JOINT RightToeBase
					{
						OFFSET -0.23309 -0.64041 1.93119
						CHANNELS 3 Zrotation Yrotation Xrotation
						End Site
						{
							OFFSET -0.00000 -0.00000 1.02013
						}
					}
				}
			}
		}
	}
	JOINT LowerBack
	{
		OFFSET 0 0 0
		CHANNELS 3 Zrotation Yrotation Xrotation
		JOINT Spine
		{
			OFFSET -0.07096 2.10460 -0.27878
			CHANNELS 3 Zrotation Yrotation Xrotation
			JOINT Spine1
			{
				OFFSET -0.00826 2.13662 -0.08279
				CHANNELS 3 Zrotation Yrotation Xrotation
				JOINT Neck
				{
					OFFSET 0 0 0
					CHANNELS 3 Zrotation Yrotation Xrotation
					JOINT Neck1
					{
						OFFSET 0.03239 1.77799 0.24435
						CHANNELS 3 Zrotation Yrotation Xrotation
						JOINT Head
						{
							OFFSET 0.01026 1.74194 -0.49664
							CHANNELS 3 Zrotation Yrotation Xrotation
							End Site
							{
								OFFSET 0.00170 1.83057 -0.19653
							}
						}
					}
				}
				JOINT LeftShoulder
				{
					OFFSET 0 0 0
					CHANNELS 3 Zrotation Yrotation Xrotation
					JOINT LeftArm
					{
						OFFSET 3.19178 1.35907 -0.31412
						CHANNELS 3 Zrotation Yrotation Xrotation
						JOINT LeftForeArm
						{
							OFFSET 4.85247 -0.00000 -0.00000
							CHANNELS 3 Zrotation Yrotation Xrotation
							JOINT LeftHand
							{
								OFFSET 3.55584 -0.00000 0.00000
								CHANNELS 3 Zrotation Yrotation Xrotation
								JOINT LeftFingerBase
								{
									OFFSET 0 0 0
									CHANNELS 3 Zrotation Yrotation Xrotation
									JOINT LeftHandIndex1
									{
										OFFSET 0.69320 -0.00000 0.00000
										CHANNELS 3 Zrotation Yrotation Xrotation
										End Site
										{
											OFFSET 0.55888 -0.00000 0.00000
										}
									}
								}
								JOINT LThumb
								{
									OFFSET 0 0 0
									CHANNELS 3 Zrotation Yrotation Xrotation
									End Site
									{
										OFFSET 0.56741 -0.00000 0.56741
									}
								}
							}
						}
					}
				}
				JOINT RightShoulder
				{
					OFFSET 0 0 0
					CHANNELS 3 Zrotation Yrotation Xrotation
					JOINT RightArm
					{
						OFFSET -3.28999 1.24191 -0.26899
						CHANNELS 3 Zrotation Yrotation Xrotation
						JOINT RightForeArm
						{
							OFFSET -4.64462 -0.00000 0.00000
							CHANNELS 3 Zrotation Yrotation Xrotation
							JOINT RightHand
							{
								OFFSET -3.40703 -0.00000 0.00000
								CHANNELS 3 Zrotation Yrotation Xrotation
								JOINT RightFingerBase
								{
									OFFSET 0 0 0
									CHANNELS 3 Zrotation Yrotation Xrotation
									JOINT RightHandIndex1
									{
										OFFSET -0.61958 -0.00000 0.00000
										CHANNELS 3 Zrotation Yrotation Xrotation
										End Site
										{
											OFFSET -0.49952 -0.00000 0.00000
										}
									}
								}
								JOINT RThumb
								{
									OFFSET 0 0 0
									CHANNELS 3 Zrotation Yrotation Xrotation
									End Site
									{
										OFFSET -0.50715 -0.00000 0.50715
									}
								}
							}
						}
					}
				}
			}
		}
	}
}
MOTION
Frames: 9
Frame Time: 0.05
0.00 0.00 0.00 379.3980 80.5766 381.4040 0.0000 0.0000 0.0000 -21.1835 5.8553 -7.6687 0.3369 3.7298 10.3177 0.2256 7.0066 -14.1465 0.0056 0.4833 1.3281 0.0000 0.0000 0.0000 8.5468 -5.8342 0.0417 -5.9552 -14.3848 44.8017 0.0491 -4.7271 -4.5233 -1.5579 -7.8772 22.3417 -11.5909 2.5735 7.6171 -5.8094 2.8655 3.6065 0.1652 1.4854 -0.7121 2.5709 2.1262 -24.7167 -1.7396 2.3713 6.9523 -0.6867 1.1186 6.0625 0.0000 0.0000 0.0000 -66.2092 -23.9969 18.8748 11.3918 -18.8863 -1.9008 -0.0000 -0.0000 10.6297 17.0635 -25.9411 -7.6474 -7.1250 0.0000 -0.0000 -7.6793 3.2187 7.3029 0.0000 0.0000 0.0000 75.0187 -13.8227 42.9554 -20.8596 31.6641 -5.9761 0.0000 -0.0000 -1.1722 2.0533 -34.3182 -1.1580 7.1250 -0.0000 -0.0000 39.7561 -59.6263 -15.6847
0.00 0.00 0.00 494.8070 77.5400 486.1360 0.0000 0.0000 0.0000 -22.4529 6.0658 22.9364 0.0587 1.5631 4.2997 0.8540 0.8175 -17.7750 0.5197 -4.6205 -12.8292 0.0000 0.0000 0.0000 0.2419 -9.2803 -4.1861 -1.5711 -7.9090 22.4379 -0.9230 -2.9559 -19.4450 -0.5130 -4.5911 12.7457 -19.1073 0.0601 3.9703 -4.1479 -0.1744 2.7313 6.2167 -0.1780 0.8218 0.2076 1.3959 -26.3604 -2.5995 2.3713 14.2120 -0.5816 0.8289 8.7490 -0.0000 0.0000 0.0000 -76.0788 -16.7777 68.5738 45.2171 -50.8744 -22.4070 -0.0000 -0.0000 13.3794 29.4084 -35.1888 -17.9950 -7.1250 0.0000 -0.0000 -2.0086 -8.9867 2.2990 -0.0000 0.0000 0.0000 89.6629 -14.7442 14.9989 -33.4436 43.6683 -13.7274 0.0000 -0.0000 -28.0141 -19.3822 -31.5343 10.4257 7.1250 -0.0000 -0.0000 15.0353 -62.4049 -6.4379
0.00 0.00 0.00 527.4630 76.9980 517.1120 0.0000 0.0000 0.0000 -6.0658 6.0632 22.0631 0.5670 4.8226 13.4033 0.1409 -5.4523 -7.1805 0.9440 -6.1882 -17.3314 0.0000 0.0000 0.0000 11.0923 -14.2931 7.5383 -0.5397 -4.7069 13.0744 -1.2726 -4.3730 -23.2920 -0.3594 -3.8512 10.6583 -10.9314 0.6814 1.8669 -2.1440 0.9948 2.7255 3.8819 0.3733 1.6694 -0.7386 -1.2523 -25.5574 0.4707 -1.5364 15.3063 0.0557 -0.7070 8.9663 -0.0000 0.0000 0.0000 -81.1443 -0.1972 34.7827 11.3629 -18.8424 -1.8915 -0.0000 -0.0000 26.5971 24.7192 -28.8129 -12.5095 -7.1250 0.0000 -0.0000 -3.4617 -1.1660 3.5379 -0.0000 0.0000 0.0000 84.6040 -11.2869 20.1487 -43.5029 50.0136 -21.0853 0.0000 -0.0000 -27.0076 -24.8225 -33.3914 14.2820 7.1250 -0.0000 -0.0000 10.0702 -65.7062 -5.0583
0.00 0.00 0.00 530.7160 76.4800 520.2930 0.0000 0.0000 0.0000 -3.3822 6.1535 21.3382 0.7061 5.3708 14.9692 -0.0403 -6.5463 -3.4682 0.4250 -4.1839 -11.5945 0.0000 0.0000 0.0000 12.6408 -14.9990 9.0210 -0.4346 -4.2305 11.7261 -1.3646 -4.2217 -23.9459 -0.5101 -4.5782 12.7094 -10.0343 0.4819 1.4076 -2.0211 0.7859 2.7934 3.5206 0.2610 2.0295 -1.1698 -1.4762 -26.0070 1.4071 -1.8874 15.6343 0.3956 -0.7827 9.1729 0.0000 -0.0000 0.0000 -82.6854 -1.1486 -5.0558 6.5633 -11.1983 -0.6441 -0.0000 -0.0000 50.3544 27.0468 -26.3336 -12.7611 -7.1250 0.0000 -0.0000 -1.7177 0.9287 1.6904 0.0000 -0.0000 0.0000 83.8174 -10.4196 21.4006 -47.7697 52.0554 -24.4040 0.0000 -0.0000 -27.1159 -24.4311 -33.6945 14.1449 7.1250 -0.0000 -0.0000 10.8057 -65.8952 -5.4786
0.00 0.00 0.00 534.0750 76.7985 523.8200 0.0000 0.0000 0.0000 0.7088 6.4755 18.8998 1.1735 6.8758 19.3480 -0.1457 -6.7858 1.7585 0.1223 -2.2543 -6.2089 0.0000 0.0000 0.0000 15.2506 -15.7474 9.9409 -0.4038 -4.0798 11.3013 -1.5758 -3.1339 -25.0171 -0.6214 -5.0445 14.0355 -7.8940 0.9046 1.0564 -2.1783 1.3600 2.5822 2.1768 0.5933 1.9599 -1.0020 -1.9419 -25.9678 2.1370 -2.7467 15.8612 0.4937 -1.0806 9.2685 -0.0000 0.0000 0.0000 -80.0669 5.1047 -26.7864 7.2950 -12.4038 -0.7938 -0.0000 -0.0000 32.2850 32.3115 -14.9965 -9.2943 -7.1250 0.0000 -0.0000 3.1595 12.4132 -2.4102 -0.0000 0.0000 0.0000 83.0333 -9.0457 22.7127 -57.3333 55.5564 -32.1319 0.0000 -0.0000 -25.5194 -24.7868 -34.8227 14.7724 7.1250 -0.0000 -0.0000 11.3494 -67.1141 -6.0744
0.00 0.00 0.00 540.5210 76.5804 530.5030 0.0000 0.0000 0.0000 5.9256 7.8504 11.8217 2.5814 9.9845 28.9264 0.1095 -1.8273 -5.8812 0.9099 -6.0784 -17.0121 0.0000 0.0000 0.0000 20.8925 -16.6641 11.9207 -0.3572 -3.8395 10.6255 -1.9970 -2.0701 -27.5181 -1.0559 -6.5336 18.3408 -4.8179 2.1563 0.7076 -1.6141 3.0134 2.6965 1.0687 1.4534 2.2217 -2.2079 -3.3154 -25.1809 3.4790 -4.5183 16.5063 0.8907 -1.8181 9.4591 0.0000 0.0000 0.0000 -72.5894 20.8128 -15.1785 11.0556 -18.3735 -1.7934 -0.0000 0.0000 -2.5169 24.6462 -22.3150 -9.8823 -7.1250 0.0000 -0.0000 -2.6569 5.6992 2.3825 0.0000 0.0000 0.0000 78.3564 -4.9026 26.4088 -83.6504 59.8471 -54.5039 0.0000 -0.0000 -24.3838 -21.9085 -34.0957 12.7047 7.1250 -0.0000 -0.0000 14.2386 -65.5671 -7.1392
0.00 0.00 0.00 536.1940 78.0788 527.8400 0.0000 0.0000 0.0000 1.3189 13.2294 4.4755 2.5043 9.8457 28.4784 0.8936 8.0967 -22.5497 0.0120 -0.7061 -1.9405 0.0000 0.0000 0.0000 21.3100 -17.6512 12.2504 -0.2978 -3.5088 9.6988 -2.0164 0.1748 -26.8387 -0.4156 -4.1381 11.4655 -2.5742 3.1494 0.4187 -1.7114 4.3231 2.5769 -0.2493 2.1510 2.3559 -1.8284 -3.3974 -23.8090 2.5788 -4.6197 17.6495 0.5108 -1.9505 9.5954 0.0000 0.0000 0.0000 -70.1246 28.5907 -6.7066 12.4572 -20.4867 -2.2598 -0.0000 0.0000 -1.7986 28.1524 -23.6999 -12.1389 -7.1250 0.0000 -0.0000 -0.6628 3.5141 0.6210 0.0000 0.0000 0.0000 73.0354 1.0509 31.3849 -95.4457 59.8876 -64.7143 0.0000 -0.0000 -15.1980 -16.9823 -30.1085 8.7098 7.1250 -0.0000 -0.0000 16.6264 -60.4368 -6.3619
0.00 0.00 0.00 740.9150 78.2547 741.3550 0.0000 0.0000 0.0000 -23.3645 3.0877 -12.4675 1.3638 7.3916 20.8807 0.8696 6.0095 -20.7873 0.4474 4.2914 11.8978 0.0000 0.0000 0.0000 12.7657 -13.7438 -16.5174 -7.4323 -15.6854 50.4912 -0.5603 5.7827 -13.3545 -0.0681 -1.6839 4.6330 -9.4608 3.8784 10.7054 -3.5442 4.6198 6.3865 1.0949 2.2725 0.3328 4.5525 3.7265 -21.2273 -1.5291 4.1849 21.0976 -0.6596 2.1363 10.3973 0.0000 0.0000 0.0000 -72.6047 10.7685 14.8362 17.3948 -27.3753 -4.2673 -0.0000 0.0000 -2.0718 24.0559 -17.4759 -7.6353 -7.1250 0.0000 -0.0000 -2.5621 10.9715 2.0298 0.0000 0.0000 0.0000 84.8136 -8.8171 21.9180 -15.4794 24.8096 -3.4246 0.0000 0.0000 11.6368 -12.4013 -34.6942 7.1340 7.1250 -0.0000 -0.0000 25.6134 -63.5186 -11.8951
0.00 0.00 0.00 839.6040 76.0718 844.6030 0.0000 0.0000 0.0000 -41.3935 9.1976 8.6401 0.2514 3.2262 8.9091 -0.2954 -16.0992 -7.9448 0.4228 4.1734 11.5650 0.0000 0.0000 0.0000 22.0726 -6.7352 -28.9011 -0.4153 -4.1367 11.4615 0.2849 9.4147 3.3146 -0.0023 -0.3090 0.8490 -16.8780 -3.5572 4.9191 -3.8337 -4.7599 4.9450 5.3207 -2.7157 3.6642 3.9010 3.8778 -23.3008 0.1958 3.9802 17.9154 0.0267 2.1531 9.5692 0.0000 0.0000 0.0000 -85.6337 -30.7171 79.1605 54.9986 -54.8228 -30.2148 -0.0000 -0.0000 8.2880 26.4488 -33.5372 -15.3677 -7.1250 0.0000 -0.0000 -3.2781 -6.4796 3.6328 0.0000 0.0000 0.0000 80.4359 -28.7528 28.0039 -24.7625 35.9602 -8.1500 0.0000 -0.0000 -4.9792 -8.6354 -30.6968 4.4331 7.1250 -0.0000 -0.0000 25.8221 -59.0517 -9.2508
